<svg width="51" height="52" xmlns="http://www.w3.org/2000/svg" xmlns:xlink="http://www.w3.org/1999/xlink" overflow="hidden"><defs><clipPath id="clip0"><rect x="41" y="475" width="51" height="52"/></clipPath></defs><g clip-path="url(#clip0)" transform="translate(-41 -475)"><path d="M25.5 24.3913C26.6736 24.3913 27.625 23.4399 27.625 22.2663 27.625 21.0927 26.6736 20.1413 25.5 20.1413 24.3264 20.1413 23.375 21.0927 23.375 22.2663 23.3626 23.4275 24.2939 24.3789 25.4552 24.3913 25.4701 24.3914 25.4851 24.3914 25.5 24.3913ZM25.5 21.2038C26.0868 21.2038 26.5625 21.6795 26.5625 22.2663 26.5625 22.8531 26.0868 23.3288 25.5 23.3288 24.9132 23.3288 24.4375 22.8531 24.4375 22.2663 24.4242 21.6923 24.8787 21.2161 25.4527 21.2027 25.4685 21.2024 25.4842 21.2023 25.5 21.2027Z" transform="matrix(1 0 0 1.01961 41 475)"/><path d="M32.4062 23.3288 32.4062 20.9429 32.6273 21.1639 35.3951 18.368 25.5 8.87188 15.3892 18.53 18.2081 21.3302 18.5938 20.944 18.5938 23.3288 5.84375 23.3288 5.84375 42.4586 21.7812 42.4586 21.7812 36.6562C21.7812 34.6024 23.4462 32.9375 25.5 32.9375 27.5538 32.9375 29.2188 34.6024 29.2188 36.6562L29.2188 42.4586 45.1562 42.4586 45.1562 23.3288ZM18.2054 19.83 16.9118 18.5449 25.5 10.3456 33.8815 18.3876 32.6251 19.6562 32.4062 19.44 32.4062 19.4363 25.5 12.5301 18.5938 19.4363 18.5938 19.4437ZM44.0938 41.3961 30.2812 41.3961 30.2812 36.6562C30.2812 34.0156 28.1406 31.875 25.5 31.875 22.8594 31.875 20.7188 34.0156 20.7188 36.6562L20.7188 41.3961 6.90625 41.3961 6.90625 24.3913 19.6562 24.3913 19.6562 19.8815 20.3687 19.1691 20.3687 19.1691 25.5 14.0308 30.1644 18.6963 30.1644 18.6963 31.3438 19.8804 31.3438 24.3913 44.0938 24.3913Z" transform="matrix(1 0 0 1.01961 41 475)"/><path d="M10.0938 27.625 11.1562 27.625 11.1562 31.875 10.0938 31.875Z" transform="matrix(1 0 0 1.01961 41 475)"/><path d="M13.2812 27.625 14.3438 27.625 14.3438 31.875 13.2812 31.875Z" transform="matrix(1 0 0 1.01961 41 475)"/><path d="M10.0938 34 11.1562 34 11.1562 38.25 10.0938 38.25Z" transform="matrix(1 0 0 1.01961 41 475)"/><path d="M13.2812 34 14.3438 34 14.3438 38.25 13.2812 38.25Z" transform="matrix(1 0 0 1.01961 41 475)"/><path d="M16.4688 27.625 17.5312 27.625 17.5312 31.875 16.4688 31.875Z" transform="matrix(1 0 0 1.01961 41 475)"/><path d="M16.4688 34 17.5312 34 17.5312 38.25 16.4688 38.25Z" transform="matrix(1 0 0 1.01961 41 475)"/><path d="M33.4688 27.625 34.5312 27.625 34.5312 31.875 33.4688 31.875Z" transform="matrix(1 0 0 1.01961 41 475)"/><path d="M36.6562 27.625 37.7188 27.625 37.7188 31.875 36.6562 31.875Z" transform="matrix(1 0 0 1.01961 41 475)"/><path d="M33.4688 34 34.5312 34 34.5312 38.25 33.4688 38.25Z" transform="matrix(1 0 0 1.01961 41 475)"/><path d="M36.6562 34 37.7188 34 37.7188 38.25 36.6562 38.25Z" transform="matrix(1 0 0 1.01961 41 475)"/><path d="M39.8438 27.625 40.9062 27.625 40.9062 31.875 39.8438 31.875Z" transform="matrix(1 0 0 1.01961 41 475)"/><path d="M39.8438 34 40.9062 34 40.9062 38.25 39.8438 38.25Z" transform="matrix(1 0 0 1.01961 41 475)"/><path d="M21.7812 27.625 29.2188 27.625 29.2188 28.6875 21.7812 28.6875Z" transform="matrix(1 0 0 1.01961 41 475)"/></g></svg>